<svg xmlns="http://www.w3.org/2000/svg" viewBox="0 0 2004.88 2000"><defs><style>.cls-1{fill:#202020;}</style></defs><g id="Layer_5" data-name="Layer 5"><path class="cls-1" d="M831.58,1159.12a23.13,23.13,0,0,1-7.07-1.06,15.15,15.15,0,0,1-5.22-2.67l1.84-3.22a17.24,17.24,0,0,0,4.71,2.39,18.08,18.08,0,0,0,6,1q4.3,0,6.2-1.35a4.21,4.21,0,0,0,1.89-3.59,3.31,3.31,0,0,0-1.06-2.61,7.1,7.1,0,0,0-2.78-1.44,36.17,36.17,0,0,0-3.85-.83c-1.42-.23-2.83-.5-4.22-.8a15.81,15.81,0,0,1-3.82-1.35,7.58,7.58,0,0,1-2.79-2.44,7.22,7.22,0,0,1-1.06-4.14,7.46,7.46,0,0,1,1.38-4.42,9.07,9.07,0,0,1,4-3.07,16.79,16.79,0,0,1,6.52-1.12,22.61,22.61,0,0,1,5.85.77,16.29,16.29,0,0,1,4.83,2l-1.78,3.27a13.92,13.92,0,0,0-4.31-2,18.08,18.08,0,0,0-4.59-.6q-4.08,0-6,1.41a4.26,4.26,0,0,0-1.92,3.59,3.5,3.5,0,0,0,1.06,2.7,7.42,7.42,0,0,0,2.82,1.52,29,29,0,0,0,3.84.89c1.4.23,2.8.51,4.2.83a19.47,19.47,0,0,1,3.84,1.32,7.08,7.08,0,0,1,2.82,2.36,6.8,6.8,0,0,1,1.06,4,7.34,7.34,0,0,1-1.46,4.56,9.39,9.39,0,0,1-4.25,3A19,19,0,0,1,831.58,1159.12Z"/><path class="cls-1" d="M853.57,1122a2.89,2.89,0,0,1-2.12-.86,2.79,2.79,0,0,1-.86-2.07,2.72,2.72,0,0,1,.86-2,2.94,2.94,0,0,1,2.12-.83,3,3,0,0,1,2.13.81,2.62,2.62,0,0,1,.86,2,3,3,0,0,1-.83,2.13A2.9,2.9,0,0,1,853.57,1122Zm-2.06,36.81v-30.15h4.07v30.15Z"/><path class="cls-1" d="M904.63,1128.4a13.88,13.88,0,0,1,6.4,1.4,9.87,9.87,0,0,1,4.25,4.28,15.32,15.32,0,0,1,1.53,7.24v17.51h-4.08v-17.11q0-4.77-2.27-7.21a8.33,8.33,0,0,0-6.4-2.44,10.67,10.67,0,0,0-5.37,1.29,8.76,8.76,0,0,0-3.51,3.74A13,13,0,0,0,894,1143v15.85h-4.08v-17.11q0-4.77-2.3-7.21a8.42,8.42,0,0,0-6.43-2.44,10.72,10.72,0,0,0-5.34,1.29,8.69,8.69,0,0,0-3.53,3.74A12.83,12.83,0,0,0,871,1143v15.85H867v-30.15h3.9v8.16l-.63-1.44a10.81,10.81,0,0,1,4.45-5.14,13.77,13.77,0,0,1,7.27-1.86,12.59,12.59,0,0,1,7.52,2.21,10.3,10.3,0,0,1,4,6.63l-1.61-.63a11.93,11.93,0,0,1,4.68-5.95A14.09,14.09,0,0,1,904.63,1128.4Z"/><path class="cls-1" d="M927.89,1170v-41.3h3.9v9.08l-.4,6,.58,6.09V1170Zm15.56-10.86a13.9,13.9,0,0,1-7.06-1.81,13.11,13.11,0,0,1-5-5.22,17.3,17.3,0,0,1-1.86-8.36,17.54,17.54,0,0,1,1.83-8.36,12.77,12.77,0,0,1,5-5.19,14.23,14.23,0,0,1,7.12-1.78,15.52,15.52,0,0,1,7.73,1.92,13.94,13.94,0,0,1,5.37,5.4,17.49,17.49,0,0,1,0,16,14.21,14.21,0,0,1-5.37,5.4A15.34,15.34,0,0,1,943.45,1159.12Zm-.28-3.62a11.22,11.22,0,0,0,5.74-1.46,10.81,10.81,0,0,0,4-4.14,12.47,12.47,0,0,0,1.49-6.17,12.32,12.32,0,0,0-1.49-6.14,10.85,10.85,0,0,0-9.76-5.63,11.21,11.21,0,0,0-5.78,1.49,10.74,10.74,0,0,0-4,4.14,12.53,12.53,0,0,0-1.46,6.14,12.67,12.67,0,0,0,1.46,6.17,10.54,10.54,0,0,0,4,4.14A11.39,11.39,0,0,0,943.17,1155.5Z"/><path class="cls-1" d="M966.83,1158.83v-42.61h4.08v42.61Z"/><path class="cls-1" d="M984.34,1122a2.89,2.89,0,0,1-2.12-.86,2.79,2.79,0,0,1-.86-2.07,2.72,2.72,0,0,1,.86-2,2.94,2.94,0,0,1,2.12-.83,3,3,0,0,1,2.13.81,2.62,2.62,0,0,1,.86,2,3,3,0,0,1-.83,2.13A2.9,2.9,0,0,1,984.34,1122Zm-2.06,36.81v-30.15h4.07v30.15Z"/><path class="cls-1" d="M993,1132.07v-3.39h18.66v3.39Zm5.39,26.76v-33.94a9,9,0,0,1,2.36-6.49c1.57-1.64,3.83-2.47,6.78-2.47a12.39,12.39,0,0,1,3.33.46,6.86,6.86,0,0,1,2.7,1.44l-1.38,3a6,6,0,0,0-2-1.12,7.94,7.94,0,0,0-2.47-.37,5.24,5.24,0,0,0-4,1.44,5.93,5.93,0,0,0-1.37,4.25v4.59l.11,1.9v27.27Zm20.85-36.81a2.89,2.89,0,0,1-2.12-.86,2.79,2.79,0,0,1-.86-2.07,2.72,2.72,0,0,1,.86-2,2.94,2.94,0,0,1,2.12-.83,3,3,0,0,1,2.13.81,2.62,2.62,0,0,1,.86,2,2.92,2.92,0,0,1-.84,2.13A2.86,2.86,0,0,1,1019.26,1122Zm-2.07,36.81v-30.15h4.08v30.15Z"/><path class="cls-1" d="M1045.51,1159.12a16.73,16.73,0,0,1-8.27-2,14.33,14.33,0,0,1-5.57-5.46,15.55,15.55,0,0,1-2-8,16,16,0,0,1,1.92-7.93,14.24,14.24,0,0,1,5.28-5.42,15.61,15.61,0,0,1,15.11-.06,13.72,13.72,0,0,1,5.2,5.4,16.52,16.52,0,0,1,1.89,8q0,.29,0,.6t0,.66h-26.24v-3h24.06l-1.61,1.21a11.94,11.94,0,0,0-1.4-5.83,10.33,10.33,0,0,0-3.82-4,10.67,10.67,0,0,0-5.57-1.44,10.83,10.83,0,0,0-5.57,1.44,9.88,9.88,0,0,0-3.85,4,12.34,12.34,0,0,0-1.38,5.91v.63a11.85,11.85,0,0,0,1.52,6.06,10.7,10.7,0,0,0,4.25,4.08,12.94,12.94,0,0,0,6.23,1.46,13.44,13.44,0,0,0,5.14-1,10.69,10.69,0,0,0,4.11-3l2.3,2.64a13,13,0,0,1-5,3.68A17,17,0,0,1,1045.51,1159.12Z"/><path class="cls-1" d="M1079.39,1159.12a15.27,15.27,0,0,1-7.72-1.95,14,14,0,0,1-5.37-5.43,17.41,17.41,0,0,1,0-16,13.86,13.86,0,0,1,5.37-5.37,15.46,15.46,0,0,1,7.72-1.92,14,14,0,0,1,7.09,1.78,12.9,12.9,0,0,1,5,5.19,17.3,17.3,0,0,1,1.87,8.36,17.58,17.58,0,0,1-1.84,8.33,12.87,12.87,0,0,1-5,5.25A14,14,0,0,1,1079.39,1159.12Zm.29-3.62a11.35,11.35,0,0,0,5.77-1.46,10.54,10.54,0,0,0,4-4.14,13.83,13.83,0,0,0,0-12.37,10.59,10.59,0,0,0-4-4.11,11.35,11.35,0,0,0-5.77-1.46,11.11,11.11,0,0,0-5.69,1.46,10.87,10.87,0,0,0-4,4.11,13.58,13.58,0,0,0,0,12.37,10.81,10.81,0,0,0,4,4.14A11.11,11.11,0,0,0,1079.68,1155.5Zm11.37,3.33v-9.07l.4-6.09-.57-6.08v-21.37H1095v42.61Z"/><path class="cls-1" d="M1116.66,1132.07v-3.39h18.67v3.39Zm14.25,27a8,8,0,0,1-8.85-8.79V1122h4.08v28.09a5.7,5.7,0,0,0,1.35,4.07,5.06,5.06,0,0,0,3.88,1.44,6.62,6.62,0,0,0,4.48-1.55l1.43,2.93a7.67,7.67,0,0,1-2.9,1.61A12,12,0,0,1,1130.91,1159.12Z"/><path class="cls-1" d="M1144.69,1158.83v-30.15h3.9v8.22l-.4-1.44a9.88,9.88,0,0,1,4.25-5.25,14,14,0,0,1,7.41-1.81v4a3.55,3.55,0,0,1-.46,0,3.55,3.55,0,0,0-.46,0,9.69,9.69,0,0,0-7.46,2.9c-1.8,1.94-2.7,4.68-2.7,8.24v15.39Z"/><path class="cls-1" d="M1176.22,1159.12a14.26,14.26,0,0,1-5.89-1.12,8.67,8.67,0,0,1-3.82-3.1,8,8,0,0,1-1.32-4.57,8.3,8.3,0,0,1,1.12-4.27A7.88,7.88,0,0,1,1170,1143a16.7,16.7,0,0,1,6.86-1.17h10.39v3H1177q-4.37,0-6,1.55a5.24,5.24,0,0,0,.31,8,9.06,9.06,0,0,0,5.63,1.55,10.88,10.88,0,0,0,5.94-1.58,9.12,9.12,0,0,0,3.65-4.57l.92,2.81a9.61,9.61,0,0,1-4,4.77A13.23,13.23,0,0,1,1176.22,1159.12Zm10.39-.29v-6.66l-.17-1.09v-11.14a7.84,7.84,0,0,0-2.15-5.92c-1.44-1.37-3.57-2.06-6.41-2.06a16,16,0,0,0-5.57,1,14.29,14.29,0,0,0-4.48,2.59l-1.84-3a16.4,16.4,0,0,1,5.52-3,21.37,21.37,0,0,1,6.77-1.06c3.91,0,6.93,1,9,2.9s3.19,4.87,3.19,8.81v18.72Z"/><path class="cls-1" d="M1213.61,1159.12a15.31,15.31,0,0,1-7.73-1.95,14,14,0,0,1-5.37-5.43,17.49,17.49,0,0,1,0-16,13.86,13.86,0,0,1,5.37-5.37,15.5,15.5,0,0,1,7.73-1.92,14.06,14.06,0,0,1,7.09,1.78,13,13,0,0,1,5,5.19,19.75,19.75,0,0,1,0,16.69,12.85,12.85,0,0,1-5,5.25A14,14,0,0,1,1213.61,1159.12Zm.28-3.62a11.33,11.33,0,0,0,5.77-1.46,10.4,10.4,0,0,0,4-4.14,13.75,13.75,0,0,0,0-12.37,10.46,10.46,0,0,0-4-4.11,11.33,11.33,0,0,0-5.77-1.46,11.07,11.07,0,0,0-5.68,1.46,10.73,10.73,0,0,0-4,4.11,13.5,13.5,0,0,0,0,12.37,10.67,10.67,0,0,0,4,4.14A11.07,11.07,0,0,0,1213.89,1155.5Zm11.37,3.33v-9.07l.41-6.09-.58-6.08v-21.37h4.08v42.61Z"/><path class="cls-1" d="M1242.61,1122a2.91,2.91,0,0,1-2.13-.86,2.82,2.82,0,0,1-.86-2.07,2.76,2.76,0,0,1,.86-2,3.16,3.16,0,0,1,4.25,0,2.59,2.59,0,0,1,.86,2,2.91,2.91,0,0,1-.83,2.13A2.86,2.86,0,0,1,1242.61,1122Zm-2.07,36.81v-30.15h4.08v30.15Z"/><path class="cls-1" d="M1271.38,1128.4a14.26,14.26,0,0,1,6.46,1.4,10.19,10.19,0,0,1,4.37,4.28,15,15,0,0,1,1.58,7.24v17.51h-4.08v-17.11q0-4.77-2.39-7.21a8.92,8.92,0,0,0-6.69-2.44,11.61,11.61,0,0,0-5.6,1.29,8.94,8.94,0,0,0-3.67,3.74,12.45,12.45,0,0,0-1.29,5.88v15.85H1256v-30.15h3.9V1137l-.63-1.55a11,11,0,0,1,4.6-5.14A14.54,14.54,0,0,1,1271.38,1128.4Z"/><path class="cls-1" d="M1306.93,1157.69a16,16,0,0,1-7.75-1.87,13.86,13.86,0,0,1-5.43-5.2,15.67,15.67,0,0,1,0-15.25,13.78,13.78,0,0,1,5.43-5.14,16.24,16.24,0,0,1,7.75-1.83,15.54,15.54,0,0,1,7.24,1.66,12.51,12.51,0,0,1,5.11,4.94,17.81,17.81,0,0,1,0,16,12.9,12.9,0,0,1-5.11,5A15.1,15.1,0,0,1,1306.93,1157.69Zm.75,12.57a26.13,26.13,0,0,1-7.93-1.2,15.51,15.51,0,0,1-6.14-3.45l2.06-3.1a15.92,15.92,0,0,0,5.26,3,19.68,19.68,0,0,0,6.63,1.12q5.75,0,8.44-2.68t2.7-8.29v-7.53l.58-5.17-.41-5.16v-9.14h3.91v26.48c0,5.21-1.27,9-3.82,11.46S1312.65,1170.26,1307.68,1170.26Zm-.35-16.19a12.19,12.19,0,0,0,5.92-1.41,10.53,10.53,0,0,0,4.07-3.9,11,11,0,0,0,1.5-5.78,10.85,10.85,0,0,0-1.5-5.74,10.55,10.55,0,0,0-4.07-3.88,13.13,13.13,0,0,0-11.8,0,10.24,10.24,0,0,0-4.08,3.88,11,11,0,0,0-1.47,5.74,11.19,11.19,0,0,0,1.47,5.78,10.22,10.22,0,0,0,4.08,3.9A12.17,12.17,0,0,0,1307.33,1154.07Z"/><path class="cls-1" d="M1362,1159.12a16.7,16.7,0,0,1-8.27-2,14.36,14.36,0,0,1-5.58-5.46,15.55,15.55,0,0,1-2-8,15.92,15.92,0,0,1,1.93-7.93,14.24,14.24,0,0,1,5.28-5.42,14.6,14.6,0,0,1,7.55-2,14.78,14.78,0,0,1,7.56,1.92,13.63,13.63,0,0,1,5.19,5.4,16.41,16.41,0,0,1,1.9,8q0,.29,0,.6t0,.66h-26.24v-3h24.06l-1.61,1.21a11.84,11.84,0,0,0-1.41-5.83,10.31,10.31,0,0,0-3.81-4,10.69,10.69,0,0,0-5.58-1.44,10.88,10.88,0,0,0-5.57,1.44,9.86,9.86,0,0,0-3.84,4,12.34,12.34,0,0,0-1.38,5.91v.63a11.76,11.76,0,0,0,1.52,6.06,10.64,10.64,0,0,0,4.25,4.08,12.91,12.91,0,0,0,6.23,1.46,13.44,13.44,0,0,0,5.14-1,10.69,10.69,0,0,0,4.11-3l2.29,2.64a12.89,12.89,0,0,1-5,3.68A17,17,0,0,1,1362,1159.12Z"/><path class="cls-1" d="M1395.89,1159.12a15.34,15.34,0,0,1-7.73-1.95,14.06,14.06,0,0,1-5.36-5.43,17.41,17.41,0,0,1,0-16,13.9,13.9,0,0,1,5.36-5.37,15.52,15.52,0,0,1,7.73-1.92,14,14,0,0,1,7.09,1.78,13,13,0,0,1,5,5.19,17.3,17.3,0,0,1,1.87,8.36,17.58,17.58,0,0,1-1.84,8.33,12.87,12.87,0,0,1-5,5.25A14,14,0,0,1,1395.89,1159.12Zm.29-3.62A11.38,11.38,0,0,0,1402,1154a10.54,10.54,0,0,0,4-4.14,13.83,13.83,0,0,0,0-12.37,10.59,10.59,0,0,0-4-4.11,11.38,11.38,0,0,0-5.77-1.46,11.11,11.11,0,0,0-5.69,1.46,10.87,10.87,0,0,0-4,4.11,13.58,13.58,0,0,0,0,12.37,10.81,10.81,0,0,0,4,4.14A11.11,11.11,0,0,0,1396.18,1155.5Zm11.37,3.33v-9.07l.4-6.09-.57-6.08v-21.37h4.07v42.61Z"/><path class="cls-1" d="M1435.29,1159.12a14.92,14.92,0,0,1-6.72-1.43,10.18,10.18,0,0,1-4.45-4.31,14.7,14.7,0,0,1-1.58-7.18v-17.52h4.07v17.06q0,4.83,2.39,7.27a9,9,0,0,0,6.69,2.44,11,11,0,0,0,5.48-1.3,8.53,8.53,0,0,0,3.56-3.76,13,13,0,0,0,1.24-5.91v-15.8h4.08v30.15h-3.91v-8.27l.63,1.5a11.14,11.14,0,0,1-4.45,5.2A13.11,13.11,0,0,1,1435.29,1159.12Z"/><path class="cls-1" d="M1473.94,1159.12a16.07,16.07,0,0,1-8-2,14.41,14.41,0,0,1-5.55-5.46,16.79,16.79,0,0,1,0-15.93,14.26,14.26,0,0,1,5.55-5.4,16.27,16.27,0,0,1,8-1.95,15.78,15.78,0,0,1,7,1.49,11.35,11.35,0,0,1,4.88,4.48l-3,2.07a9.57,9.57,0,0,0-3.84-3.39,12.14,12.14,0,0,0-10.8.37,10.74,10.74,0,0,0-4.08,4.11,13.64,13.64,0,0,0,0,12.4,10.74,10.74,0,0,0,4.08,4.11,12.14,12.14,0,0,0,10.8.37,9.64,9.64,0,0,0,3.84-3.33l3,2.07a11.59,11.59,0,0,1-4.88,4.45A15.65,15.65,0,0,1,1473.94,1159.12Z"/><path class="cls-1" d="M1502.25,1159.12a14.26,14.26,0,0,1-5.89-1.12,8.79,8.79,0,0,1-3.82-3.1,8,8,0,0,1-1.32-4.57,8.4,8.4,0,0,1,1.12-4.27A7.93,7.93,0,0,1,1496,1143a16.7,16.7,0,0,1,6.86-1.17h10.4v3H1503q-4.37,0-6.06,1.55a5.24,5.24,0,0,0,.31,8,9.06,9.06,0,0,0,5.63,1.55,10.94,10.94,0,0,0,5.95-1.58,9.1,9.1,0,0,0,3.64-4.57l.92,2.81a9.51,9.51,0,0,1-4,4.77A13.21,13.21,0,0,1,1502.25,1159.12Zm10.4-.29v-6.66l-.18-1.09v-11.14a7.81,7.81,0,0,0-2.15-5.92q-2.16-2.05-6.4-2.06a15.92,15.92,0,0,0-5.57,1,14.07,14.07,0,0,0-4.48,2.59l-1.84-3a16.36,16.36,0,0,1,5.51-3,21.43,21.43,0,0,1,6.78-1.06c3.9,0,6.92,1,9,2.9s3.19,4.87,3.19,8.81v18.72Z"/><path class="cls-1" d="M1522.93,1132.07v-3.39h18.66v3.39Zm14.24,27a8,8,0,0,1-8.85-8.79V1122h4.08v28.09a5.7,5.7,0,0,0,1.35,4.07,5.06,5.06,0,0,0,3.88,1.44,6.6,6.6,0,0,0,4.48-1.55l1.43,2.93a7.67,7.67,0,0,1-2.9,1.61A12,12,0,0,1,1537.17,1159.12Z"/><path class="cls-1" d="M1553,1122a2.93,2.93,0,0,1-2.13-.86,2.82,2.82,0,0,1-.86-2.07,2.76,2.76,0,0,1,.86-2,3.16,3.16,0,0,1,4.25,0,2.59,2.59,0,0,1,.86,2,2.91,2.91,0,0,1-.83,2.13A2.86,2.86,0,0,1,1553,1122Zm-2.07,36.81v-30.15H1555v30.15Z"/><path class="cls-1" d="M1578.69,1159.12a15.52,15.52,0,0,1-7.87-2,14.63,14.63,0,0,1-5.45-5.48,16.75,16.75,0,0,1,0-15.91,14.49,14.49,0,0,1,5.45-5.4,16.9,16.9,0,0,1,15.82,0,14.44,14.44,0,0,1,5.46,5.4,15.56,15.56,0,0,1,2,8,15.74,15.74,0,0,1-2,8,14.3,14.3,0,0,1-5.48,5.46A15.85,15.85,0,0,1,1578.69,1159.12Zm0-3.62a11.31,11.31,0,0,0,5.8-1.46,10.46,10.46,0,0,0,4-4.14,13.75,13.75,0,0,0,0-12.37,10.52,10.52,0,0,0-4-4.11,12,12,0,0,0-11.49,0,10.78,10.78,0,0,0-4,4.11,13.5,13.5,0,0,0,0,12.37,10.74,10.74,0,0,0,4,4.14A11,11,0,0,0,1578.69,1155.5Z"/><path class="cls-1" d="M1617.8,1128.4a14.26,14.26,0,0,1,6.46,1.4,10.19,10.19,0,0,1,4.37,4.28,15,15,0,0,1,1.58,7.24v17.51h-4.08v-17.11q0-4.77-2.39-7.21a8.92,8.92,0,0,0-6.69-2.44,11.61,11.61,0,0,0-5.6,1.29,8.89,8.89,0,0,0-3.67,3.74,12.45,12.45,0,0,0-1.29,5.88v15.85h-4.08v-30.15h3.9V1137l-.63-1.55a11,11,0,0,1,4.6-5.14A14.54,14.54,0,0,1,1617.8,1128.4Z"/><path class="cls-1" d="M688,1096.63V1012H724.6q11.37,0,19.59,3.69a28.62,28.62,0,0,1,12.69,10.57,29.5,29.5,0,0,1,4.48,16.45,29,29,0,0,1-4.48,16.26,28.47,28.47,0,0,1-12.69,10.46q-8.22,3.61-19.59,3.62H698.85l8.71-8.58v32.16Zm19.59-30-8.71-9.19h24.66q9.07,0,13.55-3.93t4.47-10.82q0-7-4.47-10.88T723.51,1028H698.85l8.71-9.31Zm34.21,30-21.16-30.71h20.92l21.4,30.71Z"/><path class="cls-1" d="M765.71,1096.63,803.43,1012h19.34l37.85,84.63H840.06l-30.95-74.72h7.74l-31.07,74.72Zm18.86-18.14,5.2-14.87h43.52l5.32,14.87Z"/><path class="cls-1" d="M869.44,1096.63V1012h38.45q13.79,0,24.3,5.26A40.1,40.1,0,0,1,948.63,1032q5.93,9.42,5.93,22.36t-5.93,22.31a40,40,0,0,1-16.44,14.75q-10.52,5.27-24.3,5.26ZM889,1080.55h17.89a31.79,31.79,0,0,0,14.69-3.2,23.22,23.22,0,0,0,9.67-9.13,29.87,29.87,0,0,0,0-27.87,23.34,23.34,0,0,0-9.67-9.07,31.79,31.79,0,0,0-14.69-3.2H889Z"/><path class="cls-1" d="M988.77,1080.91h46.07v15.72H969.31V1012h64v15.71H988.77Zm-1.45-34.82h40.75v15.24H987.32Z"/><path class="cls-1" d="M1090.93,1097.23a46.71,46.71,0,0,1-17.47-3.2,41.74,41.74,0,0,1-14-9,41,41,0,0,1-9.19-13.6,46.5,46.5,0,0,1,0-34.21,40.63,40.63,0,0,1,9.25-13.61,42.69,42.69,0,0,1,14-9,46.25,46.25,0,0,1,17.41-3.21,47.74,47.74,0,0,1,16.75,2.9,34.68,34.68,0,0,1,13.36,8.83l-3.87,4a33.05,33.05,0,0,0-12-7.68,41.17,41.17,0,0,0-14-2.35,40.1,40.1,0,0,0-15.06,2.78,35.92,35.92,0,0,0-20.07,19.7,39.72,39.72,0,0,0,0,29.5,36,36,0,0,0,20.07,19.71,40.1,40.1,0,0,0,15.06,2.78,40.93,40.93,0,0,0,14-2.36,32.47,32.47,0,0,0,12-7.79l3.87,4a35.14,35.14,0,0,1-13.36,8.88A46.66,46.66,0,0,1,1090.93,1097.23Z"/><path class="cls-1" d="M1175.81,1097.23a46.67,46.67,0,0,1-17.47-3.2,41.88,41.88,0,0,1-14-9.07,41.24,41.24,0,0,1-9.25-13.66,45.88,45.88,0,0,1,0-34,41.39,41.39,0,0,1,9.25-13.67,42,42,0,0,1,14-9.06,49.14,49.14,0,0,1,34.94,0,41.48,41.48,0,0,1,23.21,22.61,45.72,45.72,0,0,1,0,34.21,41.57,41.57,0,0,1-23.21,22.61A46.71,46.71,0,0,1,1175.81,1097.23Zm0-5.68a39.59,39.59,0,0,0,15-2.78,35.49,35.49,0,0,0,12-7.86,36.68,36.68,0,0,0,7.92-11.85,39.88,39.88,0,0,0,0-29.56,37.07,37.07,0,0,0-7.92-11.79,35.61,35.61,0,0,0-12-7.85,41.83,41.83,0,0,0-30,0,36.2,36.2,0,0,0-20,19.64,39.88,39.88,0,0,0,0,29.56,36.11,36.11,0,0,0,20,19.71A39.64,39.64,0,0,0,1175.81,1091.55Z"/><path class="cls-1" d="M1241.21,1096.63V1012h30.35a44.89,44.89,0,0,1,18.26,3.38,26.28,26.28,0,0,1,11.73,9.74,27.83,27.83,0,0,1,4.11,15.41,27.36,27.36,0,0,1-4.11,15.17,26.65,26.65,0,0,1-11.73,9.8,44.21,44.21,0,0,1-18.26,3.44h-27l2.78-2.9v30.59Zm6.17-30.23-2.78-2.9h27q13.67,0,20.74-6t7.07-16.93q0-11-7.07-17t-20.74-6h-27l2.78-3Zm52.59,30.23-22-30.71h7l22,30.71Z"/><path class="cls-1" d="M1328.26,1096.63V1012h30.35a44.89,44.89,0,0,1,18.26,3.38,26.25,26.25,0,0,1,11.72,9.74,27.75,27.75,0,0,1,4.11,15.41,27.28,27.28,0,0,1-4.11,15.17,26.62,26.62,0,0,1-11.72,9.8,44.21,44.21,0,0,1-18.26,3.44h-27l2.78-2.9v30.59Zm6.17-30.23-2.78-2.9h27q13.67,0,20.74-6t7.07-16.93q0-11-7.07-17t-20.74-6h-27l2.78-3Zm52.59,30.23-22-30.71h7l22,30.71Z"/><path class="cls-1" d="M1421.48,1091.07h52.23v5.56h-58.4V1012h56.58v5.56h-50.41Zm-.73-40.14h45.82v5.44h-45.82Z"/><path class="cls-1" d="M1531.62,1097.23a46.67,46.67,0,0,1-17.47-3.2,41.64,41.64,0,0,1-14-9,40.88,40.88,0,0,1-9.19-13.6,46.37,46.37,0,0,1,0-34.21,40.49,40.49,0,0,1,9.25-13.61,42.69,42.69,0,0,1,14-9,46.21,46.21,0,0,1,17.41-3.21,47.69,47.69,0,0,1,16.74,2.9,34.61,34.61,0,0,1,13.36,8.83l-3.86,4a33.05,33.05,0,0,0-12-7.68,41.23,41.23,0,0,0-14-2.35,40,40,0,0,0-15,2.78,35.92,35.92,0,0,0-20.07,19.7,39.72,39.72,0,0,0,0,29.5,36,36,0,0,0,20.07,19.71,40,40,0,0,0,15,2.78,41,41,0,0,0,14-2.36,32.47,32.47,0,0,0,12-7.79l3.86,4a35.06,35.06,0,0,1-13.36,8.88A46.6,46.6,0,0,1,1531.62,1097.23Z"/><path class="cls-1" d="M1597.51,1096.63v-79.07H1567V1012h67.11v5.56h-30.47v79.07Z"/><path class="cls-1" d="M570.66,1014v83.27h31v-66.9Z"/><path class="cls-1" d="M781,865.72l-100.42,135-25.74,34.58-53.06-28-5.1-2.65-26-13.76L555.85,983l-91.37,68.88,62.58-84.1,25.75-34.59s8.45,4.52,17.78,9.43c10.91,5.8,22.79,12.09,22.89,12.09s3.34,1.77,8.25,4.42a4.55,4.55,0,0,1,1,.49c12,6.29,31.54,16.61,31.54,16.61Z"/><path class="cls-1" d="M639.17,841.5a154.6,154.6,0,0,1,20,11.28l-27.69,37A119.18,119.18,0,0,0,611,878.91a143.22,143.22,0,0,0-54-10.22c-19.83,0-38.09,3.29-55.09,10.06a129.73,129.73,0,0,0-44.07,28.19,127.62,127.62,0,0,0-29,43.12c-6.93,16.54-10.38,34.64-10.38,54.16a139.89,139.89,0,0,0,10.38,54.14,128.24,128.24,0,0,0,73,71.17c17,6.75,35.26,10.07,55.09,10.07,3.28,0,6.49-.1,9.69-.3,0,0-33.1,44.21-33.1,44.21a187.73,187.73,0,0,1-53.41-12.43,170.88,170.88,0,0,1-58.87-37.78,176,176,0,0,1-39-57.14c-9.44-21.73-14.17-45.81-14.17-71.94,0-26.29,4.73-50.23,14.17-72.1a175.07,175.07,0,0,1,98.39-94.94c22.68-9,47.54-13.38,74.31-13.38,27.24,0,52.42,4.58,75.39,13.86Q634.88,839.46,639.17,841.5Z"/></g></svg>